<svg xmlns="http://www.w3.org/2000/svg" width="18.325" height="19.800" viewBox="0 0 18.325 19.800" fill="none">
  <path d="M 9.163 0 C 6.938 0 5.108 0.788 3.851 2.274 C 2.611 3.74 2.013 5.783 2.013 8.15 L 2.013 8.9 C 2.013 11.365 1.33 12.825 0.357 13.768 C -0.025 14.138 -0.065 14.65 0.072 15.026 C 0.21 15.409 0.591 15.8 1.162 15.8 L 17.163 15.8 C 17.735 15.8 18.115 15.409 18.254 15.026 C 18.39 14.65 18.351 14.138 17.969 13.768 C 16.996 12.825 16.313 11.365 16.313 8.9 L 16.313 8.15 C 16.313 5.783 15.715 3.74 14.475 2.274 C 13.217 0.788 11.388 0 9.163 0 Z M 3.813 8.15 C 3.813 6.065 4.34 4.483 5.225 3.437 C 6.092 2.411 7.388 1.8 9.163 1.8 C 10.938 1.8 12.233 2.411 13.101 3.437 C 13.986 4.483 14.513 6.065 14.513 8.15 L 14.513 8.9 C 14.513 11.063 14.981 12.727 15.832 14 L 2.494 14 C 3.345 12.727 3.813 11.063 3.813 8.9 L 3.813 8.15 Z" fill="currentColor" fill-rule="evenodd"></path>
  <path d="M 7.163 18 C 6.666 18 6.263 18.403 6.263 18.9 C 6.263 19.397 6.666 19.8 7.163 19.8 L 11.163 19.8 C 11.66 19.8 12.063 19.397 12.063 18.9 C 12.063 18.403 11.66 18 11.163 18 L 7.163 18 Z" fill="currentColor" fill-rule="nonzero"></path>
</svg>