<svg xmlns="http://www.w3.org/2000/svg" width="15.800" height="19.800" viewBox="0 0 15.800 19.800" fill="none">
  <path d="M 4.065 0 C 3.535 0 3.084 0 2.713 0.03 C 2.324 0.062 1.945 0.132 1.583 0.316 C 1.038 0.594 0.594 1.038 0.316 1.583 C 0.132 1.945 0.062 2.324 0.03 2.713 C 0 3.084 0 3.535 0 4.065 L 0 18.9 C 0 19.225 0.175 19.525 0.459 19.684 C 0.742 19.844 1.089 19.838 1.367 19.669 L 7.9 15.703 L 14.433 19.669 C 14.711 19.838 15.058 19.844 15.341 19.684 C 15.625 19.525 15.8 19.225 15.8 18.9 L 15.8 4.065 C 15.8 3.535 15.8 3.084 15.77 2.713 C 15.738 2.324 15.668 1.945 15.484 1.583 C 15.206 1.038 14.762 0.594 14.217 0.316 C 13.855 0.132 13.476 0.062 13.087 0.03 C 12.716 0 12.265 0 11.735 0 L 4.065 0 Z" fill="currentColor" fill-rule="nonzero"></path>
</svg>