<svg xmlns="http://www.w3.org/2000/svg" width="15.800" height="19.800" viewBox="0 0 15.800 19.800" fill="none">
  <path d="M 4.065 0 L 11.735 0 C 12.265 0 12.716 0 13.087 0.03 C 13.476 0.062 13.855 0.132 14.217 0.316 C 14.762 0.594 15.206 1.038 15.484 1.583 C 15.668 1.945 15.738 2.324 15.77 2.713 C 15.8 3.084 15.8 3.535 15.8 4.065 L 15.8 18.9 C 15.8 19.225 15.625 19.525 15.341 19.684 C 15.058 19.844 14.711 19.838 14.433 19.669 L 7.9 15.703 L 1.367 19.669 C 1.089 19.838 0.742 19.844 0.459 19.684 C 0.175 19.525 0 19.225 0 18.9 L 0 4.065 C 0 3.535 0 3.084 0.03 2.713 C 0.062 2.324 0.132 1.945 0.316 1.583 C 0.594 1.038 1.038 0.594 1.583 0.316 C 1.945 0.132 2.324 0.062 2.713 0.03 C 3.084 0 3.535 0 4.065 0 Z M 3.7 1.8 C 2.885 1.8 2.692 1.811 2.56 1.854 C 2.225 1.963 1.963 2.225 1.854 2.56 C 1.811 2.692 1.8 2.886 1.8 3.7 L 1.8 17.301 L 7.433 13.881 C 7.72 13.707 8.08 13.707 8.367 13.881 L 14 17.301 L 14 3.7 C 14 2.886 13.989 2.692 13.946 2.56 C 13.837 2.225 13.575 1.963 13.24 1.854 C 13.108 1.811 12.915 1.8 12.1 1.8 L 3.7 1.8 Z" fill="currentColor" fill-rule="evenodd"></path>
</svg>