<svg xmlns="http://www.w3.org/2000/svg" width="19.300" height="19.300" viewBox="0 0 19.300 19.300" fill="none">
  <path d="M 9.65 1.8 C 5.315 1.8 1.8 5.315 1.8 9.65 C 1.8 13.985 5.315 17.5 9.65 17.5 C 11.011 17.5 12.289 17.154 13.403 16.547 C 13.607 16.435 13.847 16.407 14.071 16.468 L 16.185 17.045 C 16.645 17.17 16.93 17.247 17.139 17.284 C 17.213 17.297 17.261 17.302 17.287 17.303 C 17.293 17.298 17.298 17.293 17.303 17.287 C 17.302 17.261 17.297 17.214 17.284 17.139 C 17.247 16.93 17.17 16.645 17.045 16.185 L 16.468 14.071 C 16.407 13.847 16.435 13.607 16.546 13.403 C 17.154 12.289 17.5 11.011 17.5 9.65 C 17.5 5.315 13.985 1.8 9.65 1.8 Z M 0 9.65 C 0 4.32 4.32 0 9.65 0 C 14.979 0 19.3 4.32 19.3 9.65 C 19.3 11.188 18.939 12.645 18.297 13.937 L 18.792 15.75 C 18.904 16.16 19.003 16.526 19.057 16.826 C 19.11 17.131 19.147 17.517 19 17.903 C 18.807 18.408 18.408 18.807 17.902 19 C 17.517 19.147 17.131 19.11 16.826 19.057 C 16.526 19.004 16.16 18.904 15.75 18.792 L 13.937 18.298 C 12.645 18.939 11.188 19.3 9.65 19.3 C 4.32 19.3 0 14.98 0 9.65 Z" fill="currentColor" fill-rule="evenodd"></path>
</svg>