<svg xmlns="http://www.w3.org/2000/svg" width="19.800" height="19.800" viewBox="0 0 19.800 19.800" fill="none">
  <path d="M 9.4 4.5 C 9.897 4.5 10.3 4.903 10.3 5.4 L 10.3 10.027 L 12.511 12.238 C 12.862 12.59 12.862 13.159 12.511 13.511 C 12.159 13.862 11.59 13.862 11.238 13.511 L 8.763 11.036 C 8.584 10.856 8.496 10.62 8.5 10.385 L 8.5 5.4 C 8.5 4.903 8.903 4.5 9.4 4.5 Z" fill="currentColor" fill-rule="nonzero"></path>
  <path d="M 9.9 0 C 4.432 0 0 4.432 0 9.9 C 0 15.368 4.432 19.8 9.9 19.8 C 15.368 19.8 19.8 15.368 19.8 9.9 C 19.8 4.432 15.368 0 9.9 0 Z M 1.8 9.9 C 1.8 5.426 5.426 1.8 9.9 1.8 C 14.373 1.8 18 5.426 18 9.9 C 18 14.374 14.373 18 9.9 18 C 5.426 18 1.8 14.374 1.8 9.9 Z" fill="currentColor" fill-rule="evenodd"></path>
</svg>