<svg xmlns="http://www.w3.org/2000/svg" width="14.800" height="14.800" viewBox="0 0 14.800 14.800" fill="none">
  <path d="M 0.264 0.264 C 0.615 -0.088 1.185 -0.088 1.536 0.264 L 7.4 6.127 L 13.264 0.264 C 13.615 -0.088 14.185 -0.088 14.536 0.264 C 14.888 0.615 14.888 1.185 14.536 1.536 L 8.673 7.4 L 14.536 13.264 C 14.888 13.615 14.888 14.185 14.536 14.536 C 14.185 14.888 13.615 14.888 13.264 14.536 L 7.4 8.673 L 1.536 14.536 C 1.185 14.888 0.615 14.888 0.264 14.536 C -0.088 14.185 -0.088 13.615 0.264 13.264 L 6.127 7.4 L 0.264 1.536 C -0.088 1.185 -0.088 0.615 0.264 0.264 Z" fill="currentColor" fill-rule="nonzero"></path>
</svg>