<svg xmlns="http://www.w3.org/2000/svg" width="16.300" height="19.800" viewBox="0 0 16.300 19.800" fill="none">
  <path d="M 4 11.4 C 4 10.902 4.403 10.5 4.9 10.5 L 8.9 10.5 C 9.397 10.5 9.8 10.902 9.8 11.4 C 9.8 11.897 9.397 12.3 8.9 12.3 L 4.9 12.3 C 4.403 12.3 4 11.897 4 11.4 Z" fill="currentColor" fill-rule="nonzero"></path>
  <path d="M 4 14.9 C 4 14.403 4.403 14 4.9 14 L 8.9 14 C 9.397 14 9.8 14.403 9.8 14.9 C 9.8 15.397 9.397 15.8 8.9 15.8 L 4.9 15.8 C 4.403 15.8 4 15.397 4 14.9 Z" fill="currentColor" fill-rule="nonzero"></path>
  <path d="M 9.429 0.053 C 9.206 -0.001 8.979 0 8.787 0 L 8.737 0 L 4.065 0 C 3.535 0 3.084 0 2.713 0.03 C 2.324 0.062 1.945 0.132 1.583 0.316 C 1.038 0.594 0.594 1.038 0.316 1.584 C 0.132 1.946 0.062 2.324 0.03 2.713 C 0 3.084 0 3.535 0 4.065 L 0 15.736 C 0 16.265 0 16.717 0.03 17.087 C 0.062 17.476 0.132 17.855 0.316 18.217 C 0.594 18.762 1.038 19.206 1.583 19.484 C 1.945 19.668 2.324 19.738 2.713 19.77 C 3.084 19.8 3.535 19.8 4.065 19.8 L 12.235 19.8 C 12.765 19.8 13.216 19.8 13.587 19.77 C 13.976 19.738 14.355 19.668 14.717 19.484 C 15.262 19.206 15.706 18.762 15.984 18.217 C 16.168 17.855 16.238 17.476 16.27 17.087 C 16.3 16.717 16.3 16.265 16.3 15.736 L 16.3 7.562 L 16.3 7.512 C 16.3 7.32 16.301 7.093 16.247 6.87 C 16.201 6.676 16.124 6.491 16.02 6.321 C 15.9 6.126 15.739 5.965 15.603 5.83 L 15.568 5.795 L 10.505 0.732 L 10.469 0.697 C 10.334 0.561 10.174 0.4 9.978 0.28 C 9.808 0.176 9.623 0.099 9.429 0.053 Z M 8.75 1.8 C 8.746 1.8 8.742 1.8 8.737 1.8 L 4.1 1.8 C 3.525 1.8 3.148 1.801 2.86 1.825 C 2.582 1.847 2.466 1.887 2.401 1.92 C 2.194 2.026 2.025 2.194 1.92 2.401 C 1.886 2.467 1.847 2.582 1.824 2.86 C 1.801 3.148 1.8 3.525 1.8 4.1 L 1.8 15.7 C 1.8 16.275 1.801 16.652 1.824 16.941 C 1.847 17.219 1.886 17.334 1.92 17.4 C 2.025 17.607 2.194 17.775 2.401 17.881 C 2.466 17.914 2.582 17.953 2.86 17.976 C 3.148 18 3.525 18 4.1 18 L 12.2 18 C 12.775 18 13.152 18 13.44 17.976 C 13.718 17.953 13.833 17.914 13.899 17.881 C 14.106 17.775 14.275 17.607 14.38 17.4 C 14.414 17.334 14.453 17.219 14.476 16.941 C 14.499 16.652 14.5 16.275 14.5 15.7 L 14.5 7.8 L 11.221 7.8 C 10.966 7.8 10.724 7.8 10.52 7.783 C 10.298 7.765 10.043 7.723 9.788 7.593 C 9.43 7.411 9.14 7.12 8.957 6.763 C 8.828 6.508 8.785 6.253 8.767 6.03 C 8.75 5.826 8.75 5.584 8.75 5.33 L 8.75 1.8 Z M 13.227 6 L 10.55 3.323 L 10.55 5.9 C 10.55 5.955 10.595 6 10.65 6 L 13.227 6 Z" fill="currentColor" fill-rule="evenodd"></path>
</svg>