<svg xmlns="http://www.w3.org/2000/svg" width="18.677" height="18.865" viewBox="0 0 18.677 18.865" fill="none">
  <path d="M 3.245 0 L 15.432 0 C 15.98 0 16.451 0 16.818 0.033 C 17.169 0.064 17.631 0.137 17.997 0.444 C 18.457 0.829 18.708 1.409 18.674 2.008 C 18.647 2.485 18.383 2.871 18.166 3.149 C 17.939 3.439 17.616 3.782 17.241 4.181 L 12.239 9.506 L 12.239 15.855 L 12.239 15.871 C 12.24 15.938 12.244 16.153 12.173 16.358 C 12.115 16.526 12.02 16.679 11.896 16.806 C 11.744 16.961 11.551 17.054 11.489 17.083 L 11.476 17.09 L 8.415 18.62 C 8.319 18.668 8.199 18.728 8.09 18.771 C 7.975 18.816 7.744 18.895 7.463 18.854 C 7.137 18.805 6.844 18.625 6.655 18.354 C 6.492 18.121 6.46 17.88 6.449 17.756 C 6.438 17.64 6.438 17.506 6.439 17.398 L 6.439 9.506 L 1.436 4.181 C 1.061 3.782 0.738 3.439 0.511 3.149 C 0.294 2.871 0.03 2.485 0.003 2.008 C -0.031 1.409 0.22 0.829 0.68 0.444 C 1.046 0.137 1.508 0.064 1.859 0.033 C 2.226 0 2.697 0 3.245 0 Z M 1.827 1.968 L 7.995 8.534 C 8.151 8.701 8.239 8.921 8.239 9.15 L 8.239 16.696 L 10.439 15.596 L 10.439 9.15 C 10.439 8.921 10.526 8.701 10.683 8.534 L 16.85 1.968 C 16.91 1.905 16.865 1.8 16.777 1.8 L 1.9 1.8 C 1.812 1.8 1.767 1.905 1.827 1.968 Z" fill="currentColor" fill-rule="evenodd"></path>
</svg>