<svg xmlns="http://www.w3.org/2000/svg" width="18.800" height="19.171" viewBox="0 0 18.800 19.171" fill="none">
  <path d="M 9.762 0.047 C 9.525 -0.016 9.275 -0.016 9.039 0.047 C 8.758 0.122 8.525 0.304 8.402 0.4 L 8.367 0.427 L 1.534 5.653 C 1.147 5.948 0.821 6.197 0.578 6.521 C 0.365 6.806 0.206 7.128 0.109 7.47 C -0.001 7.86 0 8.27 0 8.757 L 0 15.106 C 0 15.636 0 16.087 0.03 16.457 C 0.062 16.847 0.132 17.225 0.316 17.587 C 0.594 18.133 1.038 18.576 1.584 18.854 C 1.945 19.039 2.324 19.109 2.713 19.14 C 3.084 19.171 3.535 19.171 4.065 19.171 L 9.39 19.171 C 9.393 19.171 9.397 19.171 9.4 19.171 C 9.404 19.171 9.407 19.171 9.411 19.171 L 14.735 19.171 C 15.265 19.171 15.717 19.171 16.087 19.14 C 16.476 19.109 16.855 19.039 17.217 18.854 C 17.762 18.576 18.206 18.133 18.484 17.587 C 18.668 17.225 18.738 16.847 18.77 16.457 C 18.8 16.087 18.8 15.636 18.8 15.106 L 18.8 8.757 C 18.801 8.27 18.801 7.86 18.691 7.47 C 18.594 7.128 18.435 6.806 18.222 6.521 C 17.979 6.197 17.653 5.948 17.266 5.653 L 10.433 0.427 L 10.398 0.4 C 10.275 0.304 10.042 0.122 9.762 0.047 Z M 10.3 17.37 L 15.1 17.37 C 15.915 17.37 16.108 17.359 16.24 17.317 C 16.575 17.208 16.837 16.945 16.946 16.61 C 16.989 16.479 17 16.285 17 15.47 L 17 8.654 C 17 8.234 16.997 8.138 16.982 8.058 C 16.944 7.858 16.853 7.672 16.717 7.522 C 16.662 7.461 16.588 7.4 16.254 7.145 L 9.4 1.903 L 2.546 7.145 C 2.212 7.4 2.138 7.461 2.084 7.522 C 1.947 7.672 1.856 7.858 1.819 8.058 C 1.804 8.138 1.8 8.234 1.8 8.654 L 1.8 15.47 C 1.8 16.285 1.811 16.479 1.854 16.61 C 1.963 16.945 2.225 17.208 2.56 17.317 C 2.692 17.359 2.886 17.37 3.7 17.37 L 8.5 17.37 L 8.5 11.771 C 8.5 11.274 8.903 10.871 9.4 10.871 C 9.897 10.871 10.3 11.274 10.3 11.771 L 10.3 17.37 Z" fill="currentColor" fill-rule="evenodd"></path>
</svg>