<svg xmlns="http://www.w3.org/2000/svg" width="18.800" height="19.171" viewBox="0 0 18.800 19.171" fill="none">
  <path d="M 9.039 0.047 C 9.275 -0.016 9.525 -0.016 9.762 0.047 C 10.042 0.122 10.275 0.304 10.398 0.4 L 10.433 0.427 L 17.266 5.653 C 17.653 5.948 17.979 6.197 18.222 6.521 C 18.435 6.806 18.594 7.128 18.691 7.47 C 18.801 7.86 18.801 8.27 18.8 8.757 L 18.8 15.106 C 18.8 15.636 18.8 16.087 18.77 16.457 C 18.738 16.847 18.668 17.225 18.484 17.587 C 18.206 18.133 17.762 18.576 17.217 18.854 C 16.855 19.039 16.476 19.109 16.087 19.14 C 15.717 19.171 15.265 19.171 14.736 19.171 L 10.3 19.171 L 10.3 11.771 C 10.3 11.274 9.897 10.871 9.4 10.871 C 8.903 10.871 8.5 11.274 8.5 11.771 L 8.5 19.171 L 4.065 19.171 C 3.535 19.171 3.084 19.171 2.713 19.14 C 2.324 19.109 1.945 19.039 1.584 18.854 C 1.038 18.576 0.594 18.133 0.316 17.587 C 0.132 17.225 0.062 16.847 0.03 16.457 C 0 16.087 0 15.636 0 15.106 L 0 8.757 C 0 8.27 -0.001 7.86 0.109 7.47 C 0.206 7.128 0.365 6.806 0.578 6.521 C 0.821 6.197 1.147 5.948 1.534 5.653 L 8.367 0.427 L 8.402 0.4 C 8.525 0.304 8.758 0.122 9.039 0.047 Z" fill="currentColor" fill-rule="nonzero"></path>
</svg>