<svg xmlns="http://www.w3.org/2000/svg" width="18.800" height="18.800" viewBox="0 0 18.800 18.800" fill="none">
  <path d="M 3.75 6.149 C 3.75 4.824 4.824 3.749 6.15 3.749 C 7.475 3.749 8.55 4.824 8.55 6.149 C 8.55 7.475 7.475 8.549 6.15 8.549 C 4.824 8.549 3.75 7.475 3.75 6.149 Z M 6.15 5.549 C 5.818 5.549 5.55 5.818 5.55 6.149 C 5.55 6.481 5.818 6.749 6.15 6.749 C 6.481 6.749 6.75 6.481 6.75 6.149 C 6.75 5.818 6.481 5.549 6.15 5.549 Z" fill="currentColor" fill-rule="evenodd"></path>
  <path d="M 5.662 0 C 4.854 0 4.193 0 3.656 0.044 C 3.1 0.089 2.598 0.186 2.129 0.425 C 1.396 0.799 0.799 1.396 0.425 2.129 C 0.186 2.598 0.089 3.1 0.044 3.656 C 0 4.193 0 4.854 0 5.662 L 0 13.138 C 0 13.946 0 14.607 0.044 15.144 C 0.089 15.7 0.186 16.202 0.425 16.671 C 0.799 17.404 1.396 18.001 2.129 18.375 C 2.598 18.614 3.1 18.711 3.656 18.756 C 4.193 18.8 4.854 18.8 5.662 18.8 L 13.138 18.8 C 13.946 18.8 14.607 18.8 15.144 18.756 C 15.7 18.711 16.202 18.614 16.671 18.375 C 17.404 18.001 18.001 17.404 18.375 16.671 C 18.614 16.202 18.711 15.7 18.756 15.144 C 18.8 14.607 18.8 13.946 18.8 13.138 L 18.8 5.662 C 18.8 4.854 18.8 4.193 18.756 3.656 C 18.711 3.1 18.614 2.598 18.375 2.129 C 18.001 1.396 17.404 0.799 16.671 0.425 C 16.202 0.186 15.7 0.089 15.144 0.044 C 14.607 0 13.946 0 13.138 0 L 5.662 0 Z M 2.947 2.029 C 3.119 1.941 3.358 1.874 3.803 1.838 C 4.258 1.801 4.845 1.8 5.7 1.8 L 13.1 1.8 C 13.955 1.8 14.542 1.801 14.997 1.838 C 15.442 1.874 15.68 1.941 15.853 2.029 C 16.248 2.23 16.57 2.551 16.771 2.947 C 16.859 3.119 16.926 3.358 16.962 3.803 C 16.999 4.258 17 4.845 17 5.7 L 17 8.228 L 16.774 8.002 C 16.399 7.627 16.08 7.308 15.797 7.068 C 15.499 6.815 15.182 6.596 14.796 6.471 C 14.214 6.282 13.586 6.282 13.004 6.471 C 12.617 6.596 12.3 6.815 12.003 7.068 C 11.719 7.308 11.4 7.627 11.026 8.002 L 2.533 16.494 C 2.326 16.317 2.154 16.099 2.029 15.853 C 1.941 15.681 1.874 15.442 1.838 14.997 C 1.801 14.542 1.8 13.955 1.8 13.1 L 1.8 5.7 C 1.8 4.845 1.801 4.258 1.838 3.803 C 1.874 3.358 1.941 3.119 2.029 2.947 C 2.23 2.551 2.551 2.23 2.947 2.029 Z M 4.578 16.995 C 4.894 17 5.262 17 5.7 17 L 13.1 17 C 13.955 17 14.542 16.999 14.997 16.962 C 15.442 16.926 15.68 16.859 15.853 16.771 C 16.248 16.57 16.57 16.249 16.771 15.853 C 16.859 15.681 16.926 15.442 16.962 14.997 C 16.999 14.542 17 13.955 17 13.1 L 17 10.773 L 15.526 9.3 C 15.12 8.893 14.853 8.627 14.632 8.44 C 14.419 8.259 14.31 8.206 14.24 8.183 C 14.019 8.111 13.781 8.111 13.56 8.183 C 13.49 8.206 13.38 8.259 13.168 8.44 C 12.947 8.627 12.68 8.893 12.273 9.3 L 4.578 16.995 Z" fill="currentColor" fill-rule="evenodd"></path>
</svg>