<svg xmlns="http://www.w3.org/2000/svg" width="17.800" height="18.547" viewBox="0 0 17.800 18.547" fill="none">
  <path d="M 4.5 4.4 C 4.5 1.97 6.47 0 8.9 0 C 11.33 0 13.3 1.97 13.3 4.4 C 13.3 6.83 11.33 8.8 8.9 8.8 C 6.47 8.8 4.5 6.83 4.5 4.4 Z" fill="currentColor" fill-rule="nonzero"></path>
  <path d="M 8.9 10.746 C 6.588 10.746 4.431 11.199 2.816 12.068 C 1.203 12.937 0 14.312 0 16.146 L 0 16.474 C 0 16.66 0 16.85 0.013 17.013 C 0.028 17.194 0.064 17.418 0.18 17.646 C 0.338 17.957 0.59 18.209 0.901 18.367 C 1.129 18.484 1.353 18.519 1.534 18.534 C 1.697 18.547 1.887 18.547 2.073 18.547 L 15.727 18.546 C 15.913 18.546 16.103 18.546 16.266 18.533 C 16.447 18.518 16.671 18.483 16.899 18.366 C 17.21 18.208 17.462 17.956 17.62 17.645 C 17.736 17.417 17.772 17.193 17.787 17.012 C 17.8 16.85 17.8 16.66 17.8 16.473 L 17.8 16.146 C 17.8 14.312 16.597 12.937 14.984 12.068 C 13.369 11.199 11.212 10.746 8.9 10.746 Z" fill="currentColor" fill-rule="nonzero"></path>
</svg>