<svg xmlns="http://www.w3.org/2000/svg" width="17.800" height="18.799" viewBox="0 0 17.800 18.799" fill="none">
  <path d="M 8.9 0 C 6.194 0 4 2.194 4 4.9 C 4 7.606 6.194 9.8 8.9 9.8 C 11.606 9.8 13.8 7.606 13.8 4.9 C 13.8 2.194 11.606 0 8.9 0 Z M 5.8 4.9 C 5.8 3.188 7.188 1.8 8.9 1.8 C 10.612 1.8 12 3.188 12 4.9 C 12 6.612 10.612 8 8.9 8 C 7.188 8 5.8 6.612 5.8 4.9 Z" fill="currentColor" fill-rule="evenodd"></path>
  <path d="M 8.9 10.998 C 6.588 10.998 4.431 11.451 2.816 12.321 C 1.203 13.189 0 14.565 0 16.398 L 0 16.726 C 0 16.913 0 17.103 0.013 17.265 C 0.028 17.446 0.064 17.67 0.18 17.898 C 0.338 18.209 0.59 18.461 0.901 18.62 C 1.129 18.736 1.353 18.771 1.534 18.786 C 1.697 18.799 1.887 18.799 2.073 18.799 L 15.727 18.799 C 15.913 18.799 16.104 18.799 16.266 18.785 C 16.447 18.771 16.671 18.735 16.899 18.619 C 17.21 18.46 17.462 18.208 17.62 17.898 C 17.736 17.669 17.772 17.445 17.787 17.264 C 17.8 17.102 17.8 16.912 17.8 16.725 L 17.8 16.398 C 17.8 14.565 16.597 13.189 14.984 12.321 C 13.369 11.451 11.212 10.998 8.9 10.998 Z M 1.8 16.398 C 1.8 15.471 2.388 14.596 3.67 13.905 C 4.951 13.215 6.794 12.798 8.9 12.798 C 11.006 12.798 12.849 13.215 14.13 13.905 C 15.412 14.596 16 15.471 16 16.398 L 15.998 16.997 L 1.802 16.998 L 1.8 16.398 Z" fill="currentColor" fill-rule="evenodd"></path>
</svg>