<svg xmlns="http://www.w3.org/2000/svg" width="19.300" height="19.300" viewBox="0 0 19.300 19.300" fill="none">
  <path d="M 7.9 0 C 3.537 0 0 3.537 0 7.9 C 0 12.263 3.537 15.8 7.9 15.8 C 9.757 15.8 11.465 15.159 12.814 14.086 L 17.764 19.036 C 18.115 19.388 18.685 19.388 19.036 19.036 C 19.388 18.685 19.388 18.115 19.036 17.764 L 14.086 12.813 C 15.159 11.465 15.8 9.757 15.8 7.9 C 15.8 3.537 12.263 0 7.9 0 Z M 1.8 7.9 C 1.8 4.531 4.531 1.8 7.9 1.8 C 11.269 1.8 14 4.531 14 7.9 C 14 11.269 11.269 14 7.9 14 C 4.531 14 1.8 11.269 1.8 7.9 Z" fill="currentColor" fill-rule="evenodd"></path>
</svg>