<svg xmlns="http://www.w3.org/2000/svg" width="19.457" height="20.400" viewBox="0 0 19.457 20.400" fill="none">
  <path d="M 5.779 10.2 C 5.779 8.019 7.547 6.25 9.729 6.25 C 11.91 6.25 13.679 8.019 13.679 10.2 C 13.679 12.382 11.91 14.15 9.729 14.15 C 7.547 14.15 5.779 12.382 5.779 10.2 Z M 9.729 8.15 C 8.597 8.15 7.679 9.068 7.679 10.2 C 7.679 11.332 8.597 12.25 9.729 12.25 C 10.861 12.25 11.779 11.332 11.779 10.2 C 11.779 9.068 10.861 8.15 9.729 8.15 Z" fill="currentColor" fill-rule="evenodd"></path>
  <path d="M 7.86 0.171 C 8.467 0.059 9.091 0 9.729 0 C 10.366 0 10.991 0.059 11.598 0.171 C 12.639 0.364 13.079 1.313 13.222 1.905 C 13.318 2.305 13.57 2.663 13.954 2.885 C 14.336 3.106 14.773 3.145 15.167 3.029 C 15.75 2.857 16.79 2.765 17.478 3.567 C 18.288 4.513 18.928 5.609 19.351 6.809 C 19.703 7.806 19.102 8.66 18.661 9.078 C 18.363 9.362 18.179 9.76 18.179 10.202 C 18.179 10.645 18.363 11.042 18.661 11.326 C 19.101 11.744 19.701 12.599 19.35 13.596 C 18.925 14.798 18.283 15.895 17.471 16.841 C 16.784 17.641 15.748 17.55 15.165 17.38 C 14.771 17.264 14.336 17.304 13.954 17.525 C 13.572 17.745 13.32 18.102 13.223 18.501 C 13.079 19.091 12.639 20.036 11.6 20.229 C 10.993 20.341 10.367 20.4 9.729 20.4 C 9.091 20.4 8.465 20.341 7.858 20.229 C 6.819 20.036 6.379 19.09 6.235 18.5 C 6.138 18.101 5.886 17.744 5.504 17.524 C 5.122 17.303 4.686 17.263 4.292 17.379 C 3.71 17.55 2.673 17.64 1.986 16.841 C 1.175 15.895 0.533 14.798 0.109 13.598 C -0.243 12.601 0.357 11.747 0.797 11.328 C 1.095 11.044 1.279 10.647 1.279 10.205 C 1.279 9.762 1.095 9.364 0.796 9.081 C 0.356 8.662 -0.246 7.809 0.106 6.811 C 0.528 5.611 1.168 4.515 1.978 3.569 C 2.666 2.766 3.706 2.858 4.29 3.03 C 4.684 3.147 5.121 3.107 5.504 2.886 C 5.887 2.665 6.14 2.306 6.236 1.906 C 6.378 1.314 6.818 0.364 7.86 0.171 Z M 8.228 2.035 C 8.223 2.04 8.217 2.046 8.209 2.056 C 8.168 2.11 8.117 2.211 8.083 2.35 C 7.87 3.236 7.307 4.039 6.454 4.531 C 5.602 5.023 4.625 5.11 3.752 4.853 C 3.615 4.812 3.503 4.806 3.436 4.816 C 3.423 4.817 3.414 4.819 3.408 4.821 C 2.759 5.582 2.246 6.462 1.905 7.422 C 1.907 7.428 1.909 7.436 1.914 7.448 C 1.94 7.511 2.001 7.605 2.104 7.703 C 2.765 8.331 3.179 9.22 3.179 10.205 C 3.179 11.188 2.766 12.077 2.107 12.704 C 2.004 12.803 1.942 12.897 1.917 12.96 C 1.912 12.971 1.909 12.98 1.908 12.986 C 2.25 13.946 2.764 14.826 3.414 15.587 C 3.42 15.588 3.429 15.59 3.442 15.592 C 3.509 15.601 3.621 15.596 3.758 15.556 C 4.629 15.3 5.604 15.387 6.454 15.878 C 7.304 16.369 7.867 17.169 8.081 18.052 C 8.115 18.19 8.166 18.29 8.208 18.343 C 8.215 18.353 8.222 18.36 8.226 18.364 C 8.713 18.453 9.215 18.5 9.729 18.5 C 10.243 18.5 10.745 18.453 11.232 18.364 C 11.236 18.36 11.243 18.353 11.25 18.343 C 11.292 18.29 11.343 18.19 11.377 18.052 C 11.591 17.169 12.154 16.37 13.004 15.879 C 13.854 15.388 14.828 15.301 15.7 15.556 C 15.836 15.596 15.948 15.602 16.015 15.593 C 16.028 15.591 16.037 15.589 16.043 15.587 C 16.694 14.826 17.208 13.945 17.551 12.984 C 17.549 12.978 17.546 12.969 17.541 12.958 C 17.516 12.895 17.455 12.801 17.351 12.703 C 16.692 12.075 16.279 11.186 16.279 10.202 C 16.279 9.218 16.692 8.328 17.352 7.701 C 17.456 7.603 17.517 7.509 17.543 7.446 C 17.547 7.434 17.55 7.426 17.552 7.42 C 17.211 6.46 16.698 5.581 16.049 4.82 C 16.043 4.818 16.034 4.816 16.021 4.814 C 15.954 4.805 15.841 4.811 15.704 4.851 C 14.832 5.109 13.855 5.022 13.004 4.53 C 12.151 4.038 11.588 3.235 11.374 2.349 C 11.341 2.21 11.29 2.11 11.248 2.056 C 11.24 2.046 11.234 2.04 11.23 2.035 C 10.744 1.946 10.242 1.9 9.729 1.9 C 9.216 1.9 8.714 1.946 8.228 2.035 Z M 17.554 7.409 L 17.554 7.411 Z M 17.553 12.995 L 17.553 12.993 Z M 1.905 12.997 L 1.906 12.994 Z M 1.903 7.411 L 1.903 7.413 Z" fill="currentColor" fill-rule="evenodd"></path>
</svg>