<svg xmlns="http://www.w3.org/2000/svg" width="18.300" height="19.299" viewBox="0 0 18.300 19.299" fill="none">
  <path d="M 14.9 0 C 13.022 0 11.5 1.522 11.5 3.4 C 11.5 3.667 11.531 3.926 11.589 4.175 L 5.852 7.293 C 5.233 6.65 4.363 6.249 3.4 6.249 C 1.522 6.249 0 7.771 0 9.649 C 0 11.527 1.522 13.049 3.4 13.049 C 4.363 13.049 5.232 12.649 5.85 12.006 L 11.589 15.125 C 11.531 15.373 11.5 15.633 11.5 15.899 C 11.5 17.777 13.022 19.299 14.9 19.299 C 16.778 19.299 18.3 17.777 18.3 15.899 C 18.3 14.021 16.778 12.499 14.9 12.499 C 13.937 12.499 13.067 12.9 12.448 13.543 L 6.711 10.425 C 6.769 10.176 6.8 9.916 6.8 9.649 C 6.8 9.383 6.769 9.123 6.711 8.875 L 12.449 5.756 C 13.068 6.4 13.937 6.8 14.9 6.8 C 16.778 6.8 18.3 5.278 18.3 3.4 C 18.3 1.522 16.778 0 14.9 0 Z M 13.3 3.4 C 13.3 2.516 14.016 1.8 14.9 1.8 C 15.784 1.8 16.5 2.516 16.5 3.4 C 16.5 4.284 15.784 5 14.9 5 C 14.016 5 13.3 4.284 13.3 3.4 Z M 1.8 9.649 C 1.8 8.765 2.516 8.049 3.4 8.049 C 4.284 8.049 5 8.765 5 9.649 C 5 10.533 4.284 11.249 3.4 11.249 C 2.516 11.249 1.8 10.533 1.8 9.649 Z M 13.3 15.899 C 13.3 15.015 14.016 14.299 14.9 14.299 C 15.784 14.299 16.5 15.015 16.5 15.899 C 16.5 16.783 15.784 17.499 14.9 17.499 C 14.016 17.499 13.3 16.783 13.3 15.899 Z" fill="currentColor" fill-rule="evenodd"></path>
</svg>