<svg xmlns="http://www.w3.org/2000/svg" width="19.557" height="19.557" viewBox="0 0 19.557 19.557" fill="none">
  <path d="M 13.657 7.153 C 14.348 7.153 14.907 6.593 14.907 5.903 C 14.907 5.212 14.348 4.653 13.657 4.653 C 12.967 4.653 12.407 5.212 12.407 5.903 C 12.407 6.593 12.967 7.153 13.657 7.153 Z" fill="currentColor" fill-rule="nonzero"></path>
  <path d="M 12.05 0 C 11.409 0 10.94 0 10.49 0.108 C 10.092 0.203 9.711 0.361 9.362 0.575 C 8.967 0.817 8.636 1.148 8.183 1.602 L 2.388 7.396 C 1.817 7.968 1.35 8.435 1.001 8.846 C 0.64 9.271 0.353 9.694 0.191 10.195 C -0.064 10.978 -0.064 11.822 0.191 12.605 C 0.353 13.106 0.64 13.529 1.001 13.954 C 1.35 14.365 1.817 14.833 2.388 15.404 L 4.153 17.169 C 4.725 17.74 5.192 18.208 5.603 18.556 C 6.028 18.917 6.452 19.204 6.952 19.367 C 7.735 19.621 8.579 19.621 9.363 19.367 C 9.863 19.204 10.287 18.917 10.712 18.556 C 11.123 18.208 11.59 17.74 12.161 17.169 L 17.956 11.375 C 18.409 10.921 18.74 10.59 18.983 10.195 C 19.196 9.846 19.354 9.466 19.45 9.068 C 19.558 8.617 19.558 8.149 19.557 7.508 L 19.557 5.792 C 19.558 5.151 19.558 4.683 19.45 4.232 C 19.354 3.834 19.197 3.454 18.983 3.105 C 18.741 2.71 18.409 2.379 17.956 1.926 L 17.632 1.602 C 17.179 1.148 16.848 0.817 16.453 0.575 C 16.104 0.361 15.723 0.203 15.325 0.108 C 14.875 0 14.406 0 13.765 0 L 12.05 0 Z M 10.91 1.858 C 11.127 1.806 11.369 1.8 12.146 1.8 L 13.669 1.8 C 14.446 1.8 14.688 1.806 14.905 1.858 C 15.12 1.91 15.324 1.994 15.512 2.11 C 15.703 2.226 15.878 2.393 16.427 2.942 L 16.615 3.131 C 17.164 3.68 17.331 3.855 17.448 4.045 C 17.563 4.233 17.648 4.438 17.699 4.652 C 17.752 4.87 17.757 5.112 17.757 5.888 L 17.757 7.412 C 17.757 8.188 17.752 8.43 17.699 8.648 C 17.648 8.862 17.563 9.067 17.448 9.255 C 17.331 9.445 17.164 9.62 16.615 10.17 L 10.915 15.87 C 10.311 16.474 9.895 16.889 9.547 17.184 C 9.207 17.473 8.991 17.595 8.806 17.655 C 8.385 17.792 7.93 17.792 7.508 17.655 C 7.324 17.595 7.108 17.473 6.768 17.184 C 6.42 16.889 6.004 16.474 5.4 15.87 L 3.688 14.158 C 3.083 13.553 2.669 13.138 2.373 12.79 C 2.085 12.449 1.963 12.233 1.903 12.049 C 1.766 11.627 1.766 11.173 1.903 10.751 C 1.963 10.567 2.085 10.351 2.373 10.011 C 2.669 9.662 3.083 9.247 3.688 8.642 L 9.388 2.942 C 9.937 2.393 10.112 2.226 10.303 2.11 C 10.491 1.994 10.695 1.91 10.91 1.858 Z" fill="currentColor" fill-rule="evenodd"></path>
</svg>