<svg xmlns="http://www.w3.org/2000/svg" width="17.800" height="20.298" viewBox="0 0 17.800 20.298" fill="none">
  <path d="M 6.9 8.747 C 7.397 8.747 7.8 9.149 7.8 9.647 L 7.8 14.647 C 7.8 15.144 7.397 15.547 6.9 15.547 C 6.403 15.547 6 15.144 6 14.647 L 6 9.647 C 6 9.149 6.403 8.747 6.9 8.747 Z" fill="currentColor" fill-rule="nonzero"></path>
  <path d="M 10.9 8.747 C 11.397 8.747 11.8 9.149 11.8 9.647 L 11.8 14.647 C 11.8 15.144 11.397 15.547 10.9 15.547 C 10.403 15.547 10 15.144 10 14.647 L 10 9.647 C 10 9.149 10.403 8.747 10.9 8.747 Z" fill="currentColor" fill-rule="nonzero"></path>
  <path d="M 16.9 3.997 L 13.3 3.997 C 13.3 3.496 13.299 3.068 13.27 2.713 C 13.238 2.324 13.168 1.945 12.984 1.583 C 12.706 1.038 12.262 0.594 11.716 0.316 C 11.354 0.132 10.976 0.062 10.587 0.03 C 10.216 0 9.765 0 9.235 0 L 8.564 0 C 8.035 0 7.583 0 7.213 0.03 C 6.824 0.062 6.445 0.132 6.083 0.316 C 5.538 0.594 5.094 1.038 4.816 1.583 C 4.632 1.945 4.562 2.324 4.53 2.713 C 4.501 3.068 4.5 3.496 4.5 3.997 L 0.9 3.997 C 0.403 3.997 0 4.4 0 4.897 C 0 5.394 0.403 5.797 0.9 5.797 L 1.5 5.797 L 1.5 16.233 C 1.5 16.763 1.5 17.214 1.53 17.585 C 1.562 17.974 1.632 18.353 1.816 18.714 C 2.094 19.26 2.538 19.704 3.083 19.982 C 3.445 20.166 3.824 20.236 4.213 20.268 C 4.583 20.298 5.035 20.298 5.564 20.298 L 12.235 20.298 C 12.765 20.298 13.216 20.298 13.587 20.268 C 13.976 20.236 14.354 20.166 14.716 19.982 C 15.262 19.704 15.706 19.26 15.984 18.714 C 16.168 18.353 16.238 17.974 16.27 17.585 C 16.3 17.214 16.3 16.763 16.3 16.233 L 16.3 5.797 L 16.9 5.797 C 17.397 5.797 17.8 5.394 17.8 4.897 C 17.8 4.4 17.397 3.997 16.9 3.997 Z M 11.5 3.997 L 6.3 3.997 L 6.3 3.691 C 6.3 2.876 6.311 2.682 6.354 2.551 C 6.463 2.216 6.725 1.954 7.06 1.845 C 7.192 1.802 7.386 1.791 8.2 1.791 L 9.6 1.791 C 10.415 1.791 10.609 1.802 10.74 1.845 C 11.075 1.954 11.338 2.216 11.446 2.551 C 11.489 2.682 11.5 2.876 11.5 3.691 L 11.5 3.997 Z M 3.3 16.591 L 3.3 5.797 L 14.5 5.797 L 14.5 16.591 C 14.5 17.406 14.489 17.6 14.446 17.731 C 14.338 18.066 14.075 18.329 13.74 18.438 C 13.609 18.48 13.415 18.491 12.6 18.491 L 5.2 18.491 C 4.386 18.491 4.192 18.48 4.06 18.438 C 3.725 18.329 3.463 18.066 3.354 17.731 C 3.311 17.6 3.3 17.406 3.3 16.591 Z" fill="currentColor" fill-rule="evenodd"></path>
</svg>