<svg xmlns="http://www.w3.org/2000/svg" width="19.068" height="19.071" viewBox="0 0 19.068 19.071" fill="none">
  <path d="M 18.286 0.781 C 17.245 -0.26 15.556 -0.26 14.514 0.781 L 5.264 10.031 C 5.095 10.2 5 10.429 5 10.668 L 5 13.168 C 5 13.665 5.403 14.068 5.9 14.068 L 8.4 14.068 C 8.639 14.068 8.868 13.973 9.037 13.804 L 18.286 4.554 C 19.328 3.512 19.328 1.823 18.286 0.781 Z M 15.786 2.054 C 16.125 1.715 16.675 1.715 17.014 2.054 C 17.352 2.393 17.352 2.942 17.014 3.281 L 8.027 12.268 L 6.8 12.268 L 6.8 11.041 L 15.786 2.054 Z" fill="currentColor" fill-rule="evenodd"></path>
  <path d="M 9.003 1.271 C 9.498 1.271 9.9 1.672 9.9 2.168 C 9.9 2.663 9.498 3.065 9.003 3.065 L 3.7 3.065 C 2.886 3.065 2.692 3.076 2.56 3.119 C 2.225 3.228 1.963 3.49 1.854 3.825 C 1.811 3.957 1.8 4.151 1.8 4.965 L 1.8 15.365 C 1.8 16.18 1.811 16.374 1.854 16.505 C 1.963 16.84 2.225 17.103 2.56 17.211 C 2.692 17.254 2.886 17.265 3.7 17.265 L 14.1 17.265 C 14.915 17.265 15.108 17.254 15.24 17.211 C 15.575 17.103 15.837 16.84 15.946 16.505 C 15.989 16.374 16 16.18 16 15.365 L 16 10.068 C 16 9.571 16.403 9.168 16.9 9.168 C 17.397 9.168 17.8 9.571 17.8 10.068 L 17.8 15.006 C 17.8 15.536 17.8 15.987 17.77 16.358 C 17.738 16.747 17.668 17.125 17.484 17.487 C 17.206 18.033 16.762 18.477 16.217 18.755 C 15.855 18.939 15.476 19.009 15.087 19.04 C 14.716 19.071 14.265 19.071 13.735 19.071 L 4.065 19.071 C 3.535 19.071 3.084 19.071 2.713 19.04 C 2.324 19.009 1.945 18.939 1.583 18.755 C 1.038 18.477 0.594 18.033 0.316 17.487 C 0.132 17.125 0.062 16.747 0.03 16.358 C 0 15.987 0 15.536 0 15.006 L 0 5.335 C 0 4.805 0 4.354 0.03 3.984 C 0.062 3.595 0.132 3.216 0.316 2.854 C 0.594 2.308 1.038 1.865 1.583 1.587 C 1.945 1.402 2.324 1.333 2.713 1.301 C 3.084 1.271 3.535 1.271 4.064 1.271 L 9.003 1.271 Z" fill="currentColor" fill-rule="nonzero"></path>
</svg>